<svg id="Calque_1" data-name="Calque 1" xmlns="http://www.w3.org/2000/svg" viewBox="0 0 64 64"><title>Plan de travail 1</title><path d="M34.52,3.75a.73.73,0,0,1,.73.73v5a.73.73,0,0,1-.73.73h-5a.73.73,0,0,1-.73-.73v-5a.73.73,0,0,1,.73-.73h5m0-.75h-5A1.48,1.48,0,0,0,28,4.48v5A1.48,1.48,0,0,0,29.48,11h5A1.48,1.48,0,0,0,36,9.52v-5A1.48,1.48,0,0,0,34.52,3Z"/><path d="M34.52,13.75a.73.73,0,0,1,.73.73v5a.73.73,0,0,1-.73.73h-5a.73.73,0,0,1-.73-.73v-5a.73.73,0,0,1,.73-.73h5m0-.75h-5A1.48,1.48,0,0,0,28,14.48v5A1.48,1.48,0,0,0,29.48,21h5A1.48,1.48,0,0,0,36,19.52v-5A1.48,1.48,0,0,0,34.52,13Z"/><path d="M34.52,23.75a.73.73,0,0,1,.73.73v5a.73.73,0,0,1-.73.73h-5a.73.73,0,0,1-.73-.73v-5a.73.73,0,0,1,.73-.73h5m0-.75h-5A1.48,1.48,0,0,0,28,24.48v5A1.48,1.48,0,0,0,29.48,31h5A1.48,1.48,0,0,0,36,29.52v-5A1.48,1.48,0,0,0,34.52,23Z"/><path d="M34.52,33.75a.73.73,0,0,1,.73.73v5a.73.73,0,0,1-.73.73h-5a.73.73,0,0,1-.73-.73v-5a.73.73,0,0,1,.73-.73h5m0-.75h-5A1.48,1.48,0,0,0,28,34.48v5A1.48,1.48,0,0,0,29.48,41h5A1.48,1.48,0,0,0,36,39.52v-5A1.48,1.48,0,0,0,34.52,33Z"/><path d="M34.52,43.75a.73.73,0,0,1,.73.73v5a.73.73,0,0,1-.73.73h-5a.73.73,0,0,1-.73-.73v-5a.73.73,0,0,1,.73-.73h5m0-.75h-5A1.48,1.48,0,0,0,28,44.48v5A1.48,1.48,0,0,0,29.48,51h5A1.48,1.48,0,0,0,36,49.52v-5A1.48,1.48,0,0,0,34.52,43Z"/><path d="M34.52,53.75a.73.73,0,0,1,.73.73v5a.73.73,0,0,1-.73.73h-5a.73.73,0,0,1-.73-.73v-5a.73.73,0,0,1,.73-.73h5m0-.75h-5A1.48,1.48,0,0,0,28,54.48v5A1.48,1.48,0,0,0,29.48,61h5A1.48,1.48,0,0,0,36,59.52v-5A1.48,1.48,0,0,0,34.52,53Z"/></svg>