<svg id="Calque_1" data-name="Calque 1" xmlns="http://www.w3.org/2000/svg" viewBox="0 0 64 64"><title>Plan de travail 1</title><path d="M59.52,28.73a.73.73,0,0,1,.73.73v5A.72.72,0,0,1,60,35a.73.73,0,0,1-.52.22h-5a.73.73,0,0,1-.73-.73v-5a.73.73,0,0,1,.21-.52.76.76,0,0,1,.52-.21h5m0-.75h-5A1.48,1.48,0,0,0,53,29.46v5A1.48,1.48,0,0,0,54.48,36h5A1.49,1.49,0,0,0,61,34.49v-5A1.48,1.48,0,0,0,59.52,28Z"/><path d="M49.52,28.73a.73.73,0,0,1,.73.73v5a.72.72,0,0,1-.73.73h-5a.73.73,0,0,1-.73-.73v-5A.73.73,0,0,1,44,29a.76.76,0,0,1,.52-.21h5m0-.75h-5A1.48,1.48,0,0,0,43,29.47v5A1.48,1.48,0,0,0,44.48,36h5A1.48,1.48,0,0,0,51,34.5v-5A1.49,1.49,0,0,0,49.52,28Z"/><path d="M39.52,28.74a.73.73,0,0,1,.73.73v5a.72.72,0,0,1-.73.73h-5a.73.73,0,0,1-.73-.73v-5a.72.72,0,0,1,.73-.73h5m0-.75h-5A1.48,1.48,0,0,0,33,29.48v5A1.48,1.48,0,0,0,34.48,36h5A1.48,1.48,0,0,0,41,34.51v-5A1.49,1.49,0,0,0,39.52,28Z"/><path d="M29.52,28.75a.73.73,0,0,1,.73.73v5a.72.72,0,0,1-.73.73h-5a.73.73,0,0,1-.73-.73v-5a.72.72,0,0,1,.73-.73h5m0-.75h-5A1.48,1.48,0,0,0,23,29.49v5A1.49,1.49,0,0,0,24.48,36h5A1.48,1.48,0,0,0,31,34.52v-5A1.48,1.48,0,0,0,29.52,28Z"/><path d="M19.52,28.76a.73.73,0,0,1,.73.73v5a.73.73,0,0,1-.21.52.76.76,0,0,1-.52.21h-5a.73.73,0,0,1-.73-.73v-5a.72.72,0,0,1,.73-.73h5m0-.75h-5A1.48,1.48,0,0,0,13,29.5v5A1.49,1.49,0,0,0,14.48,36h5A1.48,1.48,0,0,0,21,34.53v-5A1.48,1.48,0,0,0,19.52,28Z"/><path d="M9.52,28.77a.73.73,0,0,1,.73.73v5a.73.73,0,0,1-.21.52.76.76,0,0,1-.52.21h-5a.73.73,0,0,1-.73-.73v-5A.72.72,0,0,1,4,29a.73.73,0,0,1,.52-.22h5m0-.75h-5A1.49,1.49,0,0,0,3,29.51v5A1.48,1.48,0,0,0,4.48,36h5A1.48,1.48,0,0,0,11,34.54v-5A1.48,1.48,0,0,0,9.52,28Z"/></svg>