<svg id="Calque_1" data-name="Calque 1" xmlns="http://www.w3.org/2000/svg" viewBox="0 0 64 64"><title>Plan de travail 1</title><path d="M27.52,25a.49.49,0,0,1,.48.48v13a.49.49,0,0,1-.48.48h-13a.49.49,0,0,1-.48-.48v-13a.49.49,0,0,1,.48-.48h13m0-1h-13A1.48,1.48,0,0,0,13,25.48v13A1.48,1.48,0,0,0,14.48,40h13A1.48,1.48,0,0,0,29,38.52v-13A1.48,1.48,0,0,0,27.52,24Z"/><path d="M48.52,25a.49.49,0,0,1,.48.48v13a.49.49,0,0,1-.48.48h-13a.49.49,0,0,1-.48-.48v-13a.49.49,0,0,1,.48-.48h13m0-1h-13A1.48,1.48,0,0,0,34,25.48v13A1.48,1.48,0,0,0,35.48,40h13A1.48,1.48,0,0,0,50,38.52v-13A1.48,1.48,0,0,0,48.52,24Z"/><path d="M27.32,4.1a.48.48,0,0,1,.48.48v13a.47.47,0,0,1-.48.48h-13a.48.48,0,0,1-.48-.48v-13a.49.49,0,0,1,.48-.48h13m0-1h-13A1.49,1.49,0,0,0,12.8,4.58v13a1.48,1.48,0,0,0,1.48,1.48h13a1.48,1.48,0,0,0,1.48-1.48v-13A1.48,1.48,0,0,0,27.32,3.1Z"/><path d="M27.52,46a.49.49,0,0,1,.48.48v13a.49.49,0,0,1-.48.48h-13a.49.49,0,0,1-.48-.48v-13a.49.49,0,0,1,.48-.48h13m0-1h-13A1.48,1.48,0,0,0,13,46.48v13A1.48,1.48,0,0,0,14.48,61h13A1.48,1.48,0,0,0,29,59.52v-13A1.48,1.48,0,0,0,27.52,45Z"/><path d="M48.52,46a.49.49,0,0,1,.48.48v13a.49.49,0,0,1-.48.48h-13a.49.49,0,0,1-.48-.48v-13a.49.49,0,0,1,.48-.48h13m0-1h-13A1.48,1.48,0,0,0,34,46.48v13A1.48,1.48,0,0,0,35.48,61h13A1.48,1.48,0,0,0,50,59.52v-13A1.48,1.48,0,0,0,48.52,45Z"/><path d="M48.52,4a.49.49,0,0,1,.48.48v13a.49.49,0,0,1-.48.48h-13a.49.49,0,0,1-.48-.48v-13A.49.49,0,0,1,35.48,4h13m0-1h-13A1.48,1.48,0,0,0,34,4.48v13A1.48,1.48,0,0,0,35.48,19h13A1.48,1.48,0,0,0,50,17.52v-13A1.48,1.48,0,0,0,48.52,3Z"/></svg>