<svg id="Calque_1" data-name="Calque 1" xmlns="http://www.w3.org/2000/svg" viewBox="0 0 64 64"><title>Plan de travail 1</title><path d="M17.52,35a.49.49,0,0,1,.48.48v13a.49.49,0,0,1-.48.48h-13A.49.49,0,0,1,4,48.52v-13A.49.49,0,0,1,4.48,35h13m0-1h-13A1.48,1.48,0,0,0,3,35.48v13A1.48,1.48,0,0,0,4.48,50h13A1.48,1.48,0,0,0,19,48.52v-13A1.48,1.48,0,0,0,17.52,34Z"/><path d="M59.52,14a.49.49,0,0,1,.48.48v13a.49.49,0,0,1-.48.48h-13a.49.49,0,0,1-.48-.48v-13a.49.49,0,0,1,.48-.48h13m0-1h-13A1.48,1.48,0,0,0,45,14.48v13A1.48,1.48,0,0,0,46.48,29h13A1.48,1.48,0,0,0,61,27.52v-13A1.48,1.48,0,0,0,59.52,13Z"/><path d="M17.52,14a.49.49,0,0,1,.48.48v13a.49.49,0,0,1-.48.48h-13A.49.49,0,0,1,4,27.52v-13A.49.49,0,0,1,4.48,14h13m0-1h-13A1.48,1.48,0,0,0,3,14.48v13A1.48,1.48,0,0,0,4.48,29h13A1.48,1.48,0,0,0,19,27.52v-13A1.48,1.48,0,0,0,17.52,13Z"/><path d="M38.52,35a.49.49,0,0,1,.48.48v13a.49.49,0,0,1-.48.48h-13a.49.49,0,0,1-.48-.48v-13a.49.49,0,0,1,.48-.48h13m0-1h-13A1.48,1.48,0,0,0,24,35.48v13A1.48,1.48,0,0,0,25.48,50h13A1.48,1.48,0,0,0,40,48.52v-13A1.48,1.48,0,0,0,38.52,34Z"/><path d="M59.52,35a.49.49,0,0,1,.48.48v13a.49.49,0,0,1-.48.48h-13a.49.49,0,0,1-.48-.48v-13a.49.49,0,0,1,.48-.48h13m0-1h-13A1.48,1.48,0,0,0,45,35.48v13A1.48,1.48,0,0,0,46.48,50h13A1.48,1.48,0,0,0,61,48.52v-13A1.48,1.48,0,0,0,59.52,34Z"/><path d="M38.52,14a.49.49,0,0,1,.48.48v13a.49.49,0,0,1-.48.48h-13a.49.49,0,0,1-.48-.48v-13a.49.49,0,0,1,.48-.48h13m0-1h-13A1.48,1.48,0,0,0,24,14.48v13A1.48,1.48,0,0,0,25.48,29h13A1.48,1.48,0,0,0,40,27.52v-13A1.48,1.48,0,0,0,38.52,13Z"/></svg>